<?xml version="1.0" encoding="utf-8"?>
<!-- Generator: Adobe Illustrator 22.0.1, SVG Export Plug-In . SVG Version: 6.00 Build 0)  -->
<!DOCTYPE svg PUBLIC "-//W3C//DTD SVG 1.1//EN" "http://www.w3.org/Graphics/SVG/1.1/DTD/svg11.dtd">
<svg version="1.1" id="Layer_1" xmlns="http://www.w3.org/2000/svg" xmlns:xlink="http://www.w3.org/1999/xlink" x="0px" y="0px"
	 viewBox="0 0 24 24" style="enable-background:new 0 0 24 24;" xml:space="preserve">
<style type="text/css">
	.st0{fill:#FFFFFF;}
</style>
<path class="st0" d="M10,15c0-0.6,0.4-1,1-1s1,0.4,1,1s-0.4,1-1,1S10,15.6,10,15z M16.2,15l-1.7,2.6L13.2,16L10,20h10L16.2,15z
	 M24,10v14H6V10H24z M22,12H8v10h14V12z M15.5,2.6L17.8,8h2.2l-3.3-8L0,6.9l4,9.7v-5.3L2.6,8C2.6,8,15.5,2.6,15.5,2.6z"/>
</svg>
