<?xml version="1.0" encoding="utf-8"?>
<!-- Generator: Adobe Illustrator 22.0.1, SVG Export Plug-In . SVG Version: 6.00 Build 0)  -->
<!DOCTYPE svg PUBLIC "-//W3C//DTD SVG 1.1//EN" "http://www.w3.org/Graphics/SVG/1.1/DTD/svg11.dtd">
<svg version="1.1" id="Layer_1" xmlns="http://www.w3.org/2000/svg" xmlns:xlink="http://www.w3.org/1999/xlink" x="0px" y="0px"
	 viewBox="0 0 24 24" style="enable-background:new 0 0 24 24;" xml:space="preserve">
<style type="text/css">
	.st0{fill:#299FF2;}
	.st1{fill:#FAFFFF;}
</style>
<circle class="st0" cx="12" cy="11.9" r="11.7"/>
<g>
	<path class="st1" d="M7.7,17.7v-1.5c1-0.4,2.1-1.5,2.1-2.8c0-0.3,0-0.5-0.1-0.8H7.9v-2h1.5c-0.1-0.5-0.2-1-0.2-1.5
		c0-2.4,1.7-4,4.3-4c1,0,1.8,0.2,2.2,0.5l-0.5,2.2c-0.4-0.2-0.9-0.3-1.6-0.3c-1.3,0-1.8,0.9-1.8,1.8c0,0.5,0.1,0.9,0.2,1.4h2.6v2
		h-2.4c0,0.5,0,0.9-0.2,1.3c-0.2,0.5-0.5,1-0.9,1.3v0h5.1v2.4H7.7z"/>
</g>
</svg>
