<?xml version="1.0" encoding="utf-8"?>
<!-- Generator: Adobe Illustrator 22.0.1, SVG Export Plug-In . SVG Version: 6.00 Build 0)  -->
<!DOCTYPE svg PUBLIC "-//W3C//DTD SVG 1.1//EN" "http://www.w3.org/Graphics/SVG/1.1/DTD/svg11.dtd">
<svg version="1.1" id="Layer_1" xmlns="http://www.w3.org/2000/svg" xmlns:xlink="http://www.w3.org/1999/xlink" x="0px" y="0px"
	 viewBox="0 0 100 100" style="enable-background:new 0 0 100 100;" xml:space="preserve">
<style type="text/css">
	.st0{fill:#1D88C9;}
	.st1{fill:#499AD4;}
	.st2{fill:#FFFFFF;}
</style>
<rect x="0.5" y="0.8" class="st0" width="6.1" height="6.1"/>
<rect x="93.1" y="93.3" class="st0" width="6.1" height="6.1"/>
<polygon class="st1" points="99.1,55 99.2,99.4 0.5,0.8 44.9,0.8 "/>
<g>
	<path class="st2" d="M37.2,20c-0.3-0.5-0.5-1-0.5-1.5l1.4-0.5c0.1,0.4,0.2,0.8,0.4,1.3c0.2,0.4,0.5,0.8,0.8,1.1
		c0.4,0.4,0.7,0.6,1,0.6c0.3,0.1,0.5,0,0.7-0.2c0.1-0.1,0.2-0.3,0.2-0.5c0-0.2-0.1-0.4-0.2-0.6c-0.1-0.2-0.3-0.5-0.5-0.8
		c-0.3-0.5-0.6-1-0.7-1.3c-0.2-0.4-0.2-0.8-0.2-1.2c0-0.4,0.2-0.8,0.6-1.2c0.3-0.3,0.7-0.5,1.1-0.6c0.4-0.1,0.9,0,1.4,0.2
		s1,0.6,1.5,1.1c0.4,0.4,0.7,0.7,0.9,1.2c0.3,0.4,0.4,0.8,0.5,1.3l-1.4,0.6c-0.2-0.8-0.6-1.5-1.1-2c-0.4-0.4-0.7-0.6-1-0.6
		c-0.3-0.1-0.5,0-0.7,0.2c-0.2,0.2-0.2,0.4-0.1,0.7c0.1,0.3,0.3,0.7,0.6,1.2c0.3,0.5,0.6,1,0.7,1.3c0.2,0.4,0.2,0.8,0.2,1.2
		c0,0.4-0.2,0.8-0.6,1.2c-0.3,0.3-0.7,0.5-1.1,0.6c-0.4,0.1-0.9,0-1.4-0.2c-0.5-0.2-1-0.6-1.5-1.1C37.9,21,37.5,20.6,37.2,20z"/>
	<path class="st2" d="M50.1,24.6l-4.3,4.3l-1.2-1.2l0.5-0.5c-0.4,0-0.7,0-1-0.2c-0.3-0.1-0.6-0.3-0.9-0.6c-0.6-0.6-0.8-1.2-0.9-1.8
		c0-0.7,0.3-1.3,0.9-1.9l2.4-2.4l1.2,1.2l-2.2,2.2c-0.7,0.7-0.7,1.3-0.2,1.9c0.3,0.3,0.6,0.4,1,0.4c0.4,0,0.8-0.2,1.1-0.6l2.1-2.1
		L50.1,24.6z"/>
	<path class="st2" d="M54.7,29.6c0.1,0.5,0.1,1,0,1.5c-0.1,0.5-0.4,1-0.9,1.4c-0.4,0.4-0.9,0.7-1.4,0.9c-0.5,0.1-1,0.1-1.5,0
		c-0.5-0.1-1-0.4-1.4-0.8c-0.5-0.5-0.8-1.1-0.8-1.8l-2,2l-1.2-1.2l5.8-5.8l1.2,1.2L52,27.4c0.7-0.1,1.3,0.2,1.9,0.8
		C54.3,28.6,54.5,29,54.7,29.6z M51.4,31.8c0.4,0,0.8-0.2,1.2-0.6c0.4-0.4,0.5-0.7,0.6-1.2c0-0.4-0.1-0.8-0.5-1.1
		c-0.3-0.3-0.7-0.5-1.1-0.5c-0.4,0-0.8,0.2-1.2,0.6c-0.4,0.4-0.5,0.7-0.6,1.2c0,0.4,0.1,0.8,0.5,1.1C50.6,31.7,51,31.8,51.4,31.8z"
		/>
	<path class="st2" d="M58.5,37.9l-3.2-3.2c-0.2,0.3-0.3,0.7-0.2,1c0.1,0.4,0.3,0.7,0.6,1c0.2,0.2,0.5,0.4,0.7,0.5
		c0.2,0.1,0.5,0.2,0.8,0.2L57,38.7c-0.9,0.1-1.7-0.3-2.5-1.1c-0.5-0.5-0.8-1-1-1.6c-0.2-0.6-0.2-1.1-0.1-1.6c0.1-0.5,0.4-1,0.8-1.4
		c0.4-0.4,0.9-0.7,1.4-0.8c0.5-0.1,1.1-0.1,1.6,0c0.5,0.2,1,0.5,1.4,0.9c0.4,0.4,0.7,0.9,0.9,1.4c0.2,0.5,0.2,1,0,1.6
		c-0.1,0.5-0.4,1-0.9,1.5C58.8,37.6,58.7,37.7,58.5,37.9z M56.9,33.6c-0.3,0-0.7,0.1-1,0.3L58,36c0.2-0.3,0.3-0.6,0.3-1
		c0-0.4-0.2-0.7-0.5-0.9C57.6,33.8,57.3,33.6,56.9,33.6z"/>
	<path class="st2" d="M63.5,38.1c0.4,0.1,0.7,0.4,1,0.7L63.4,40c-0.1-0.1-0.2-0.2-0.3-0.3c-0.4-0.4-0.7-0.5-1.1-0.5
		c-0.4,0-0.8,0.2-1.2,0.6l-2,2l-1.2-1.2l4.3-4.3l1.2,1.2L62.4,38C62.8,37.9,63.1,38,63.5,38.1z"/>
	<path class="st2" d="M68.6,43.9c0,0.6-0.3,1.3-0.9,1.9l-2.4,2.4L64,47l2.3-2.3c0.3-0.3,0.5-0.7,0.5-1c0-0.3-0.1-0.6-0.4-0.9
		c-0.3-0.3-0.7-0.5-1-0.5c-0.4,0-0.8,0.2-1.1,0.6l-2.1,2.1l-1.2-1.2l5.9-5.9l1.2,1.2L66,41.3c0.3,0,0.7,0.1,1,0.2
		c0.3,0.1,0.6,0.4,0.9,0.6C68.4,42.7,68.6,43.3,68.6,43.9z"/>
	<path class="st2" d="M67.5,50c-0.2-0.5-0.2-1.1-0.1-1.6c0.1-0.5,0.4-1,0.8-1.4c0.4-0.4,0.9-0.7,1.4-0.8c0.5-0.1,1.1-0.1,1.6,0.1
		c0.5,0.2,1,0.5,1.5,0.9c0.5,0.4,0.8,0.9,0.9,1.5c0.2,0.5,0.2,1.1,0.1,1.6c-0.1,0.5-0.4,1-0.8,1.4c-0.4,0.4-0.9,0.7-1.4,0.8
		c-0.5,0.1-1.1,0.1-1.6-0.1s-1-0.5-1.5-0.9C68,51.1,67.7,50.6,67.5,50z M70.5,51c0.4,0,0.8-0.2,1.2-0.6c0.4-0.4,0.5-0.7,0.6-1.2
		c0-0.4-0.1-0.8-0.5-1.1c-0.3-0.3-0.7-0.5-1.1-0.5c-0.4,0-0.8,0.2-1.2,0.6C69.2,48.6,69,49,69,49.4c0,0.4,0.1,0.8,0.5,1.1
		C69.7,50.8,70.1,51,70.5,51z"/>
	<path class="st2" d="M72.1,55c-0.3-0.4-0.4-0.8-0.5-1.1l1.3-0.5c0.1,0.3,0.2,0.6,0.4,1c0.2,0.3,0.4,0.7,0.7,0.9
		c0.5,0.5,0.9,0.7,1.2,0.4c0.1-0.1,0.1-0.3,0-0.5c-0.1-0.2-0.3-0.5-0.5-0.8c-0.3-0.4-0.5-0.8-0.7-1c-0.2-0.3-0.2-0.6-0.2-1
		c0-0.3,0.2-0.7,0.5-1c0.3-0.3,0.6-0.4,1-0.5c0.4-0.1,0.8,0,1.2,0.2c0.4,0.2,0.8,0.5,1.2,0.9c0.3,0.3,0.6,0.6,0.8,1
		c0.2,0.4,0.4,0.7,0.5,1l-1.3,0.5c-0.2-0.6-0.5-1.1-0.9-1.5c-0.3-0.3-0.5-0.4-0.7-0.5c-0.2-0.1-0.4,0-0.5,0.1
		c-0.1,0.1-0.2,0.3-0.1,0.5c0.1,0.2,0.3,0.5,0.5,0.8c0.3,0.4,0.5,0.8,0.7,1c0.2,0.3,0.2,0.6,0.2,0.9c0,0.3-0.2,0.7-0.5,1
		c-0.3,0.3-0.6,0.4-0.9,0.5c-0.4,0-0.8,0-1.2-0.2c-0.4-0.2-0.8-0.5-1.3-0.9C72.7,55.8,72.4,55.4,72.1,55z"/>
	<path class="st2" d="M78.8,61.4c-0.2,0-0.4-0.1-0.7-0.2c-0.2-0.1-0.4-0.3-0.6-0.5c-0.5-0.5-0.8-1-0.8-1.6c0-0.5,0.2-1.1,0.7-1.6
		l1.8-1.8l-0.7-0.7l1-1l0.7,0.7l1-1l1.2,1.2l-1,1l1.1,1.1l-1,1L80.5,57l-1.7,1.7c-0.2,0.2-0.3,0.4-0.3,0.6c0,0.2,0.1,0.4,0.2,0.5
		c0.2,0.2,0.4,0.3,0.7,0.3L78.8,61.4z"/>
</g>
</svg>
